<?xml version="1.0" encoding="UTF-8" standalone="no"?><svg xmlns="http://www.w3.org/2000/svg" xmlns:xlink="http://www.w3.org/1999/xlink" contentStyleType="text/css" height="595px" preserveAspectRatio="none" style="width:784px;height:595px;background:#FFFFFF;" version="1.1" viewBox="0 0 784 595" width="784px" zoomAndPan="magnify"><defs/><g><!--MD5=[f62e489415b75f67d289a27b794b419e]
cluster image\nregistry--><g id="cluster_image\nregistry"><polygon fill="none" points="16,70.5,26,60.5,156,60.5,156,184.5,146,194.5,16,194.5,16,70.5" style="stroke:#181818;stroke-width:1.0;"/><line style="stroke:#181818;stroke-width:1.0;" x1="146" x2="156" y1="70.5" y2="60.5"/><line style="stroke:#181818;stroke-width:1.0;" x1="16" x2="146" y1="70.5" y2="70.5"/><line style="stroke:#181818;stroke-width:1.0;" x1="146" x2="146" y1="70.5" y2="194.5"/><text fill="#000000" font-family="sans-serif" font-size="14" font-weight="bold" lengthAdjust="spacing" textLength="49" x="57.5" y="86.4951">image</text><text fill="#000000" font-family="sans-serif" font-size="14" font-weight="bold" lengthAdjust="spacing" textLength="64" x="50" y="102.792">registry</text></g><!--MD5=[c8375d0abf05781a4d00ac7db9cff037]
cluster host--><g id="cluster_host"><polygon fill="none" points="188,16,198,6,767,6,767,568.72,757,578.72,188,578.72,188,16" style="stroke:#181818;stroke-width:1.0;"/><line style="stroke:#181818;stroke-width:1.0;" x1="757" x2="767" y1="16" y2="6"/><line style="stroke:#181818;stroke-width:1.0;" x1="188" x2="757" y1="16" y2="16"/><line style="stroke:#181818;stroke-width:1.0;" x1="757" x2="757" y1="16" y2="578.72"/><text fill="#000000" font-family="sans-serif" font-size="14" font-weight="bold" lengthAdjust="spacing" textLength="37" x="455" y="31.9951">host</text></g><!--MD5=[a59b4262d7ac0b9dcf3b2bb90ca83b91]
cluster pod--><g id="cluster_pod"><rect fill="none" height="228" rx="2.5" ry="2.5" style="stroke:#181818;stroke-width:1.0;" width="499" x="228" y="240"/><text fill="#000000" font-family="sans-serif" font-size="14" font-weight="bold" lengthAdjust="spacing" textLength="30" x="462.5" y="254.9951">pod</text></g><!--MD5=[ce5ccd5b359d4259c2ab78015c688698]
cluster container--><g id="cluster_container"><rect fill="none" height="129" rx="2.5" ry="2.5" style="stroke:#181818;stroke-width:1.0;" width="313" x="366" y="299"/><text fill="#000000" font-family="sans-serif" font-size="14" font-weight="bold" lengthAdjust="spacing" textLength="78" x="483.5" y="313.9951">container</text></g><!--MD5=[3be6bb3a6cb2ce944746eb115eec66e2]
cluster disk--><g id="cluster_disk"><path d="M416,72 C416,62 574,62 574,62 C574,62 732,62 732,72 L732,189 C732,199 574,199 574,199 C574,199 416,199 416,189 L416,72 " fill="none" style="stroke:#181818;stroke-width:1.0;"/><path d="M416,72 C416,82 574,82 574,82 C574,82 732,82 732,72 " fill="none" style="stroke:#181818;stroke-width:1.0;"/><text fill="#000000" font-family="sans-serif" font-size="14" font-weight="bold" lengthAdjust="spacing" textLength="33" x="557.5" y="96.9951">disk</text></g><!--MD5=[1d0ff73b0623efcfba3810c9b75ad303]
entity disk_image--><g id="elem_disk_image"><path d="M76,126.5 C76,116.5 108,116.5 108,116.5 C108,116.5 140,116.5 140,126.5 L140,168.0938 C140,178.0938 108,178.0938 108,178.0938 C108,178.0938 76,178.0938 76,168.0938 L76,126.5 " fill="#F1F1F1" style="stroke:#181818;stroke-width:0.5;"/><path d="M76,126.5 C76,136.5 108,136.5 108,136.5 C108,136.5 140,136.5 140,126.5 " fill="none" style="stroke:#181818;stroke-width:0.5;"/><text fill="#000000" font-family="sans-serif" font-size="14" lengthAdjust="spacing" textLength="29" x="86" y="153.4951">disk</text><text fill="#000000" font-family="sans-serif" font-size="14" lengthAdjust="spacing" textLength="44" x="86" y="169.792">image</text></g><!--MD5=[5c29fef61d8aa94aff97e95275bc225f]
entity infra\ncontainer--><g id="elem_infra\ncontainer"><rect fill="#F1F1F1" height="52.5938" rx="2.5" ry="2.5" style="stroke:#181818;stroke-width:0.5;" width="89" x="252.5" y="346.5"/><text fill="#000000" font-family="sans-serif" font-size="14" lengthAdjust="spacing" textLength="33" x="262.5" y="369.4951">infra</text><text fill="#000000" font-family="sans-serif" font-size="14" lengthAdjust="spacing" textLength="69" x="262.5" y="385.792">container</text></g><!--MD5=[37c33c71ce9550fe283f62c54b59719b]
entity application--><g id="elem_application"><rect fill="#F1F1F1" height="46.2969" rx="2.5" ry="2.5" style="stroke:#181818;stroke-width:0.5;" width="121" x="514.5" y="350"/><rect fill="#F1F1F1" height="10" style="stroke:#181818;stroke-width:0.5;" width="15" x="615.5" y="355"/><rect fill="#F1F1F1" height="2" style="stroke:#181818;stroke-width:0.5;" width="4" x="613.5" y="357"/><rect fill="#F1F1F1" height="2" style="stroke:#181818;stroke-width:0.5;" width="4" x="613.5" y="361"/><text fill="#000000" font-family="sans-serif" font-size="14" lengthAdjust="spacing" textLength="81" x="529.5" y="382.9951">application</text></g><!--MD5=[10813752cee174daecbeb65c6b3d6843]
entity layer--><g id="elem_layer"><path d="M390.5,352 C390.5,342 435,342 435,342 C435,342 479.5,342 479.5,352 L479.5,393.5938 C479.5,403.5938 435,403.5938 435,403.5938 C435,403.5938 390.5,403.5938 390.5,393.5938 L390.5,352 " fill="#F1F1F1" style="stroke:#181818;stroke-width:0.5;"/><path d="M390.5,352 C390.5,362 435,362 435,362 C435,362 479.5,362 479.5,352 " fill="none" style="stroke:#181818;stroke-width:0.5;"/><text fill="#000000" font-family="sans-serif" font-size="14" lengthAdjust="spacing" textLength="69" x="400.5" y="378.9951">container</text><text fill="#000000" font-family="sans-serif" font-size="14" lengthAdjust="spacing" textLength="35" x="400.5" y="395.292">layer</text></g><!--MD5=[edc5ac89098b4c99541bc21d84646db1]
entity image--><g id="elem_image"><path d="M432,135 C432,125 464,125 464,125 C464,125 496,125 496,135 L496,160.2969 C496,170.2969 464,170.2969 464,170.2969 C464,170.2969 432,170.2969 432,160.2969 L432,135 " fill="#F1F1F1" style="stroke:#181818;stroke-width:0.5;"/><path d="M432,135 C432,145 464,145 464,145 C464,145 496,145 496,135 " fill="none" style="stroke:#181818;stroke-width:0.5;"/><text fill="#000000" font-family="sans-serif" font-size="14" lengthAdjust="spacing" textLength="44" x="442" y="161.9951">image</text></g><!--MD5=[107003500c5c42cbbef62457b4e1bbc7]
entity volume--><g id="elem_volume"><path d="M531,132 L531,163.2969 A2.5,2.5 0 0 0 533.5,165.7969 L600.5,165.7969 A2.5,2.5 0 0 0 603,163.2969 L603,139.5 L593,129.5 L533.5,129.5 A2.5,2.5 0 0 0 531,132 " fill="#F1F1F1" style="stroke:#181818;stroke-width:0.5;"/><path d="M593,129.5 L593,137 A2.5,2.5 0 0 0 595.5,139.5 L603,139.5 " fill="#F1F1F1" style="stroke:#181818;stroke-width:0.5;"/><text fill="#000000" font-family="sans-serif" font-size="14" lengthAdjust="spacing" textLength="52" x="541" y="152.4951">volume</text></g><!--MD5=[18b72bf5d1838316b3d85261d2b42cce]
entity folder--><g id="elem_folder"><path d="M640.5,112 L681.5,112 A3.75,3.75 0 0 1 684,114.5 L691,133 L713.5,133 A2.5,2.5 0 0 1 716,135.5 L716,180.0938 A2.5,2.5 0 0 1 713.5,182.5938 L640.5,182.5938 A2.5,2.5 0 0 1 638,180.0938 L638,114.5 A2.5,2.5 0 0 1 640.5,112 " fill="#F1F1F1" style="stroke:#181818;stroke-width:0.5;"/><line style="stroke:#181818;stroke-width:0.5;" x1="638" x2="691" y1="133" y2="133"/><text fill="#000000" font-family="sans-serif" font-size="14" lengthAdjust="spacing" textLength="48" x="648" y="152.9951">shared</text><text fill="#000000" font-family="sans-serif" font-size="14" lengthAdjust="spacing" textLength="43" x="648" y="169.292">folder</text></g><!--MD5=[d7e58729ce15c01a8056b75df6e86618]
link disk_image to image--><g id="link_disk_image_image"><path d="M140.332,147.5 C237.475,147.5 334.617,147.5 431.76,147.5 " fill="none" id="disk_image-image" style="stroke:#181818;stroke-width:1.0;"/></g><!--MD5=[ee6599fdb0ee3afe5da9a4614b98ccdb]
link image to layer--><g id="link_image_layer"><path d="M461.167,170.337 C455.95,210.539 444.82,296.315 438.897,341.965 " fill="none" id="image-layer" style="stroke:#181818;stroke-width:1.0;"/></g><!--MD5=[02af202e33751fa6475c91214b292417]
link volume to container--><g id="link_volume_container"><path d="M574.144,165.74 C581.533,181.355 594.586,203.738 613,216 C627.728,225.807 639.964,211.03 652,224 C657.5508,229.9815 661.5202,241.9822 664.3504,256.6772 C665.7656,264.0248 666.8959,272.0459 667.7967,280.325 C668.2471,284.4645 668.6401,288.6686 668.9826,292.8852 C669.0683,293.9393 669.1508,294.9942 669.2302,296.0491 C669.2699,296.5766 669.3089,297.104 669.3471,297.6314 C669.3662,297.895 669.3851,298.1587 669.4038,298.4223 " fill="none" id="volume-to-container" style="stroke:#181818;stroke-width:1.0;"/><rect fill="#FFFFFF" height="10" style="stroke:#181818;stroke-width:1.5;" width="10" x="664.4038" y="293.4223"/></g><!--MD5=[f438b4e03fde29ccd03161d45ee6bcf0]
link folder to container--><g id="link_folder_container"><path d="M676.062,183.422 C675.6468,198.8913 675.1293,218.1674 674.5851,238.44 C674.313,248.5763 674.0343,258.9616 673.7582,269.2448 C673.6202,274.3863 673.4829,279.5023 673.3474,284.5489 C673.2797,287.0721 673.2124,289.578 673.1457,292.0611 C673.1124,293.3026 673.0792,294.5384 673.0462,295.7678 C673.0297,296.3825 673.0133,296.9956 672.9969,297.607 C672.9886,297.9127 672.9804,298.218 672.9723,298.5229 " fill="none" id="folder-to-container" style="stroke:#181818;stroke-width:1.0;"/><rect fill="#FFFFFF" height="10" style="stroke:#181818;stroke-width:1.5;" width="10" x="667.9723" y="293.5229"/></g><!--MD5=[6b8908c5286b4bfd77b15d27d1261a8b]
link volume to pod--><g id="link_volume_pod"><path d="M578.547,165.616 C588.343,178.834 603.56,196.576 621,207 C647,222.541 666.005,202.166 687,224 C689.8698,226.9844 692.5076,230.1618 694.9311,233.4972 C696.1429,235.1649 697.3011,236.872 698.4079,238.6143 C698.6846,239.0498 698.9581,239.4876 699.2284,239.9275 " fill="none" id="volume-to-pod" style="stroke:#181818;stroke-width:1.0;"/><rect fill="#FFFFFF" height="10" style="stroke:#181818;stroke-width:1.5;" width="10" x="694.2284" y="234.9275"/></g><!--MD5=[0763e3795f3197623f0734417891938f]
link folder to pod--><g id="link_folder_pod"><path d="M683.562,183.422 C686.469,198.8913 690.0914,218.1674 693.9011,238.44 C693.9607,238.7567 694.0202,239.0737 694.0798,239.391 " fill="none" id="folder-to-pod" style="stroke:#181818;stroke-width:1.0;"/><rect fill="#FFFFFF" height="10" style="stroke:#181818;stroke-width:1.5;" width="10" x="689.0798" y="234.391"/></g><!--MD5=[2ab961364c22f36288be891bfa93a873]
link pod to host--><g id="link_pod_host"><path d="M697.4809,468.1054 C697.4159,468.327 697.3508,468.5487 697.2856,468.7703 C696.2419,472.3161 695.1643,475.8575 694.0537,479.3736 C691.8324,486.4058 689.479,493.3369 687,500 C675.25,531.5814 653.419,567.6672 652.066,569.8917 " fill="none" id="pod-host" style="stroke:#181818;stroke-width:1.0;"/><rect fill="#FFFFFF" height="10" style="stroke:#181818;stroke-width:1.5;" width="10" x="692.4809" y="463.1054"/><rect fill="#FFFFFF" height="10" style="stroke:#181818;stroke-width:1.5;" width="10" x="647.066" y="564.8917"/><text fill="#000000" font-family="sans-serif" font-size="13" lengthAdjust="spacing" textLength="26" x="699" y="521.0669">port</text><text fill="#000000" font-family="sans-serif" font-size="13" lengthAdjust="spacing" textLength="56" x="684" y="536.1997">mapping</text></g><!--MD5=[6471401fbc8e3b91454a91905f60e194]
link container to host--><g id="link_container_host"><path d="M669.0981,428.1656 C669.0312,429.055 668.9619,429.9471 668.8902,430.8413 C666.597,459.453 661.8405,490.1305 652,500 C635.49,516.5589 615.225,490.253 600,508 C590.739,518.7942 592.887,527.6843 600,540 C612.927,562.3827 649.609,569.5532 651.889,569.9795 " fill="none" id="container-host" style="stroke:#181818;stroke-width:1.0;"/><rect fill="#FFFFFF" height="10" style="stroke:#181818;stroke-width:1.5;" width="10" x="664.0981" y="423.1656"/><rect fill="#FFFFFF" height="10" style="stroke:#181818;stroke-width:1.5;" width="10" x="646.889" y="564.9795"/><text fill="#000000" font-family="sans-serif" font-size="13" lengthAdjust="spacing" textLength="26" x="616" y="521.0669">port</text><text fill="#000000" font-family="sans-serif" font-size="13" lengthAdjust="spacing" textLength="56" x="601" y="536.1997">mapping</text></g><!--MD5=[500ea3fbe574f7ceb2daccc8d1f7a34e]
@startuml
node "image\nregistry" {
    database "disk\nimage" as disk_image
}

node "host" {
    rectangle "pod" {
        rectangle "infra\ncontainer"
        rectangle "container" {
            component "application"
            database "container\nlayer" as layer
        }
    }
    database "disk" {
        database "image"
        file "volume"
        folder "shared\nfolder" as folder
        disk_image - image
    }
    image - -layer
    volume -# container
    folder -# container
    volume -# pod
    folder -# pod
}

pod #- -# host : "port\nmapping"
container #- -# host : "port\nmapping"
@enduml

PlantUML version 1.2022.13beta2(Unknown compile time)
(GPL source distribution)
Java Runtime: Java(TM) SE Runtime Environment
JVM: Java HotSpot(TM) 64-Bit Server VM
Default Encoding: UTF-8
Language: en
Country: US
--></g></svg>